<svg version="1.1" xmlns="http://www.w3.org/2000/svg" xmlns:xlink="http://www.w3.org/1999/xlink" width="512.000000pt" height="512.000000pt" viewBox="0,0,256,256"><g fill="#036eb8" fill-rule="nonzero" stroke="none" stroke-width="1" stroke-linecap="butt" stroke-linejoin="miter" stroke-miterlimit="10" stroke-dasharray="" stroke-dashoffset="0" font-family="none" font-weight="none" font-size="none" text-anchor="none" style="mix-blend-mode: normal"><g transform="translate(-0.01679,0.125) scale(0.5,0.5)"><g transform="translate(0,512) scale(0.1,-0.1)"><path d="M910,4674c-177,-46 -335,-175 -415,-339c-70,-141 -66,-20 -63,-1801l3,-1609l26,-67c38,-98 86,-172 155,-242c70,-69 144,-117 242,-155l67,-26h1625h1625l70,22c188,60 337,204 414,401l26,67l3,775c2,574 0,782 -9,803c-20,47 -53,57 -199,57c-143,0 -178,-10 -199,-57c-8,-17 -11,-245 -11,-734c0,-511 -3,-723 -12,-757c-16,-64 -86,-134 -150,-150c-67,-17 -3029,-17 -3096,0c-64,16 -134,86 -150,150c-9,35 -12,432 -12,1551c0,1694 -6,1574 75,1645c27,23 63,44 90,51c30,8 264,11 754,11c489,0 717,3 734,11c47,21 57,56 57,199c0,143 -10,178 -57,199c-17,8 -257,11 -781,10c-626,0 -766,-3 -812,-15z"></path><path d="M3461,4665c-16,-14 -34,-40 -40,-58c-21,-62 -3,-89 179,-272c168,-170 170,-172 170,-215v-45l-659,-660c-445,-445 -662,-669 -666,-687c-13,-50 5,-81 102,-180c99,-101 132,-119 185,-103c12,4 320,304 683,666l660,659h45c43,0 45,-2 215,-170c183,-182 210,-200 272,-179c18,6 44,24 58,40l25,31v565v565l-34,34l-34,34h-565h-565z"></path></g></g></g></svg>