<?xml version="1.0" standalone="no"?>
<!DOCTYPE svg PUBLIC "-//W3C//DTD SVG 20010904//EN"
 "http://www.w3.org/TR/2001/REC-SVG-20010904/DTD/svg10.dtd">
<svg version="1.0" xmlns="http://www.w3.org/2000/svg"
 width="512.000000pt" height="512.000000pt" viewBox="0 0 512.000000 512.000000"
 preserveAspectRatio="xMidYMid meet">

<g transform="translate(0.000000,512.000000) scale(0.100000,-0.100000)"
fill="#000000" stroke="none">
<path d="M910 4674 c-177 -46 -335 -175 -415 -339 -70 -141 -66 -20 -63 -1801
l3 -1609 26 -67 c38 -98 86 -172 155 -242 70 -69 144 -117 242 -155 l67 -26
1625 0 1625 0 70 22 c188 60 337 204 414 401 l26 67 3 775 c2 574 0 782 -9
803 -20 47 -53 57 -199 57 -143 0 -178 -10 -199 -57 -8 -17 -11 -245 -11 -734
0 -511 -3 -723 -12 -757 -16 -64 -86 -134 -150 -150 -67 -17 -3029 -17 -3096
0 -64 16 -134 86 -150 150 -9 35 -12 432 -12 1551 0 1694 -6 1574 75 1645 27
23 63 44 90 51 30 8 264 11 754 11 489 0 717 3 734 11 47 21 57 56 57 199 0
143 -10 178 -57 199 -17 8 -257 11 -781 10 -626 0 -766 -3 -812 -15z"/>
<path d="M3461 4665 c-16 -14 -34 -40 -40 -58 -21 -62 -3 -89 179 -272 168
-170 170 -172 170 -215 l0 -45 -659 -660 c-445 -445 -662 -669 -666 -687 -13
-50 5 -81 102 -180 99 -101 132 -119 185 -103 12 4 320 304 683 666 l660 659
45 0 c43 0 45 -2 215 -170 183 -182 210 -200 272 -179 18 6 44 24 58 40 l25
31 0 565 0 565 -34 34 -34 34 -565 0 -565 0 -31 -25z"/>
</g>
</svg>
