<svg width="16" height="16" viewBox="0 0 16 16" fill="none" xmlns="http://www.w3.org/2000/svg">
<rect width="16" height="16" rx="2" fill="white"/>
<path d="M8.04693 3C8.38212 3 8.66369 3.18031 8.78436 3.66574L9.60223 7.17476H11.3318L12.1631 3.47157C12.257 3.06935 12.5788 2.95839 12.8872 3.02774C13.2358 3.09709 13.4369 3.37448 13.343 3.7767L12.4983 7.17476H13.6782C13.9061 7.17476 14 7.35506 14 7.59085C14 7.82663 13.9061 8.00693 13.6782 8.00693H12.3106L11.2648 12.3343C11.1441 12.8058 10.8358 13 10.5274 13C10.2056 13 9.89721 12.8058 9.78994 12.3204L8.78436 8.00693H7.26927L6.22346 12.3343C6.10279 12.8058 5.78101 13 5.47263 13C5.16425 13 4.84246 12.8058 4.7352 12.3204L3.67598 8.00693H2.32179C2.09385 8.00693 2 7.82663 2 7.59085C2 7.35506 2.09385 7.17476 2.32179 7.17476H3.48827L2.67039 3.7767C2.56313 3.37448 2.76425 3.09709 3.12626 3.02774C3.43464 2.94452 3.75642 3.04161 3.85028 3.47157L4.68156 7.17476H6.4514L7.3095 3.66574C7.43017 3.18031 7.68492 3 8.04693 3ZM7.47039 7.17476H8.58324L8.04693 4.85853L7.47039 7.17476ZM5.53966 10.9057L6.25028 8.00693H4.86927L5.53966 10.9057ZM10.4872 10.9057L11.1441 8.00693H9.80335L10.4872 10.9057Z" fill="#1C2536"/>
</svg>
