<svg width="20" height="21" viewBox="0 0 20 21" fill="none" xmlns="http://www.w3.org/2000/svg">
<path d="M14.1667 2.16797C13.7083 2.16797 13.3333 2.54297 13.3333 3.0013V3.83464H6.66667V3.0013C6.66667 2.54297 6.29167 2.16797 5.83333 2.16797C5.375 2.16797 5 2.54297 5 3.0013V3.83464H4.16667C3.24167 3.83464 2.50833 4.58464 2.50833 5.5013L2.5 17.168C2.5 18.0846 3.24167 18.8346 4.16667 18.8346H15.8333C16.75 18.8346 17.5 18.0846 17.5 17.168V5.5013C17.5 4.58464 16.75 3.83464 15.8333 3.83464H15V3.0013C15 2.54297 14.625 2.16797 14.1667 2.16797ZM15.8333 17.168H4.16667V8.83464H15.8333V17.168ZM9.16667 11.3346C9.16667 10.8763 9.54167 10.5013 10 10.5013C10.4583 10.5013 10.8333 10.8763 10.8333 11.3346C10.8333 11.793 10.4583 12.168 10 12.168C9.54167 12.168 9.16667 11.793 9.16667 11.3346ZM5.83333 11.3346C5.83333 10.8763 6.20833 10.5013 6.66667 10.5013C7.125 10.5013 7.5 10.8763 7.5 11.3346C7.5 11.793 7.125 12.168 6.66667 12.168C6.20833 12.168 5.83333 11.793 5.83333 11.3346ZM12.5 11.3346C12.5 10.8763 12.875 10.5013 13.3333 10.5013C13.7917 10.5013 14.1667 10.8763 14.1667 11.3346C14.1667 11.793 13.7917 12.168 13.3333 12.168C12.875 12.168 12.5 11.793 12.5 11.3346ZM9.16667 14.668C9.16667 14.2096 9.54167 13.8346 10 13.8346C10.4583 13.8346 10.8333 14.2096 10.8333 14.668C10.8333 15.1263 10.4583 15.5013 10 15.5013C9.54167 15.5013 9.16667 15.1263 9.16667 14.668ZM5.83333 14.668C5.83333 14.2096 6.20833 13.8346 6.66667 13.8346C7.125 13.8346 7.5 14.2096 7.5 14.668C7.5 15.1263 7.125 15.5013 6.66667 15.5013C6.20833 15.5013 5.83333 15.1263 5.83333 14.668ZM12.5 14.668C12.5 14.2096 12.875 13.8346 13.3333 13.8346C13.7917 13.8346 14.1667 14.2096 14.1667 14.668C14.1667 15.1263 13.7917 15.5013 13.3333 15.5013C12.875 15.5013 12.5 15.1263 12.5 14.668Z" fill="#1C2536"/>
</svg>
