<svg width="20" height="18" viewBox="0 0 20 18" fill="none" xmlns="http://www.w3.org/2000/svg">
<rect width="20" height="18" rx="2" fill="#00BA88"/>
<path d="M9.72 14.1067C9.05333 14.1067 8.40889 14 7.78667 13.7867C7.17333 13.5644 6.68889 13.2756 6.33333 12.92L6.78667 11.9467C7.13333 12.2667 7.56889 12.5289 8.09333 12.7333C8.61778 12.9378 9.16 13.04 9.72 13.04C10.4489 13.04 10.9956 12.9022 11.36 12.6267C11.7333 12.3511 11.92 11.9911 11.92 11.5467C11.92 11.2178 11.8178 10.9511 11.6133 10.7467C11.4089 10.5333 11.1556 10.3733 10.8533 10.2667C10.5511 10.1511 10.1378 10.0267 9.61333 9.89333C8.95556 9.72444 8.42222 9.55556 8.01333 9.38667C7.61333 9.21778 7.26667 8.96 6.97333 8.61333C6.68889 8.26667 6.54667 7.8 6.54667 7.21333C6.54667 6.72444 6.67111 6.28 6.92 5.88C7.16889 5.47111 7.54667 5.15111 8.05333 4.92C8.56 4.68 9.18222 4.56 9.92 4.56C10.4533 4.56 10.9689 4.63556 11.4667 4.78667C11.9733 4.92889 12.4089 5.13333 12.7733 5.4L12.3733 6.4C11.9911 6.14222 11.5867 5.95111 11.16 5.82667C10.7422 5.69333 10.3289 5.62667 9.92 5.62667C9.20889 5.62667 8.67111 5.76889 8.30667 6.05333C7.95111 6.33778 7.77333 6.70667 7.77333 7.16C7.77333 7.48889 7.87556 7.76 8.08 7.97333C8.28444 8.17778 8.53778 8.33778 8.84 8.45333C9.15111 8.56889 9.56889 8.69333 10.0933 8.82667C10.76 8.99556 11.2933 9.16444 11.6933 9.33333C12.0933 9.49333 12.4356 9.74667 12.72 10.0933C13.0044 10.4311 13.1467 10.8889 13.1467 11.4667C13.1467 11.9556 13.0178 12.4 12.76 12.8C12.5111 13.2 12.1289 13.52 11.6133 13.76C11.0978 13.9911 10.4667 14.1067 9.72 14.1067Z" fill="white"/>
</svg>
