<svg width="24" height="24" viewBox="0 0 24 24" fill="none" xmlns="http://www.w3.org/2000/svg">
<path d="M12.0015 21.75C13.1015 21.75 14.0015 20.85 14.0015 19.75H10.0015C10.0015 20.85 10.8915 21.75 12.0015 21.75ZM18.0015 15.75V10.75C18.0015 7.68 16.3615 5.11 13.5015 4.43V3.75C13.5015 2.92 12.8315 2.25 12.0015 2.25C11.1715 2.25 10.5015 2.92 10.5015 3.75V4.43C7.63152 5.11 6.00152 7.67 6.00152 10.75V15.75L4.71152 17.04C4.08152 17.67 4.52152 18.75 5.41152 18.75H18.5815C19.4715 18.75 19.9215 17.67 19.2915 17.04L18.0015 15.75Z" fill="white"/>
</svg>
