<svg width="16" height="16" viewBox="0 0 16 16" fill="none" xmlns="http://www.w3.org/2000/svg">
<rect width="16" height="16" rx="2" fill="#F2F2F2"/>
<path d="M12.76 8.62823C12.7867 8.42823 12.8 8.22156 12.8 8.00156C12.8 7.78823 12.7867 7.5749 12.7533 7.3749L14.1067 6.32156C14.2267 6.22823 14.26 6.04823 14.1867 5.9149L12.9067 3.70156C12.8267 3.5549 12.66 3.50823 12.5133 3.5549L10.92 4.1949C10.5867 3.94156 10.2333 3.72823 9.83999 3.56823L9.59999 1.8749C9.57333 1.7149 9.43999 1.60156 9.27999 1.60156H6.71999C6.55999 1.60156 6.43332 1.7149 6.40666 1.8749L6.16666 3.56823C5.77333 3.72823 5.41333 3.94823 5.08666 4.1949L3.49332 3.5549C3.34666 3.50156 3.17999 3.5549 3.09999 3.70156L1.82666 5.9149C1.74666 6.0549 1.77333 6.22823 1.90666 6.32156L3.25999 7.3749C3.22666 7.5749 3.19999 7.7949 3.19999 8.00156C3.19999 8.20823 3.21333 8.42823 3.24666 8.62823L1.89333 9.68156C1.77333 9.7749 1.73999 9.9549 1.81333 10.0882L3.09333 12.3016C3.17333 12.4482 3.33999 12.4949 3.48666 12.4482L5.07999 11.8082C5.41333 12.0616 5.76666 12.2749 6.15999 12.4349L6.39999 14.1282C6.43333 14.2882 6.55999 14.4016 6.71999 14.4016H9.27999C9.43999 14.4016 9.57333 14.2882 9.59333 14.1282L9.83333 12.4349C10.2267 12.2749 10.5867 12.0616 10.9133 11.8082L12.5067 12.4482C12.6533 12.5016 12.82 12.4482 12.9 12.3016L14.18 10.0882C14.26 9.94156 14.2267 9.7749 14.1 9.68156L12.76 8.62823ZM7.99999 10.4016C6.67999 10.4016 5.59999 9.32156 5.59999 8.00156C5.59999 6.68156 6.67999 5.60156 7.99999 5.60156C9.31999 5.60156 10.4 6.68156 10.4 8.00156C10.4 9.32156 9.31999 10.4016 7.99999 10.4016Z" fill="#1C2536"/>
</svg>
